<svg width="15" height="25" viewBox="0 0 15 25" fill="none" xmlns="http://www.w3.org/2000/svg">
<path d="M7.50317 24.5699C7.28304 24.5699 7.11182 24.3926 7.11182 24.1786V0.391357C7.11182 0.171219 7.28915 0 7.50317 0C7.7172 0 7.89453 0.177334 7.89453 0.391357V24.1786C7.89453 24.3987 7.7172 24.5699 7.50317 24.5699Z" fill="white"/>
<path d="M7.50312 24.5577C7.39916 24.5577 7.30132 24.5149 7.22183 24.4415L0.116242 17.3298C-0.0366316 17.1769 -0.0366316 16.9262 0.116242 16.7733C0.269116 16.6205 0.51983 16.6205 0.672704 16.7733L7.50312 23.6038L14.3335 16.7733C14.4864 16.6205 14.7371 16.6205 14.89 16.7733C15.0429 16.9262 15.0429 17.1769 14.89 17.3298L7.77829 24.4415C7.70491 24.5149 7.60707 24.5577 7.50312 24.5577Z" fill="white"/>
</svg>

