<?xml version="1.0" encoding="utf-8"?>
<!-- Generator: Adobe Illustrator 25.2.3, SVG Export Plug-In . SVG Version: 6.00 Build 0)  -->
<svg version="1.1" id="Layer_1" xmlns="http://www.w3.org/2000/svg" xmlns:xlink="http://www.w3.org/1999/xlink" x="0px" y="0px"
	 viewBox="0 0 1215 1157.3" style="enable-background:new 0 0 1215 1157.3;" xml:space="preserve">
<style type="text/css">
	.st0{fill:#14C918;}
</style>
<g>
	<g>
		<g>
			<path class="st0" d="M571.2,573.7c-27.3-27.3-71.8-27.3-99.1,0L415.8,630c-15.9,15.9-23.2,38.6-19.6,60.7
				c1.4,9.3,4.9,18.3,9.9,26c2.6,4.3,5.8,8.4,9.8,12.3l11.9,11.9l21.9-21.9l-11.9-11.9c-3.7-3.7-6.5-7.9-8.4-12.5
				c-6-14.4-2.5-31.5,8.5-42.6l56.4-56.4c7.3-7.4,17.1-11.4,27.5-11.4c10.4,0,20.1,4,27.5,11.4c15.1,15.1,15.1,39.8,0,55l-27.4,27.4
				l0.3,0.8c4,10.9,5.8,22.9,5.2,34.7l-0.2,3.6l44.3-44.3C598.7,645.6,598.6,601,571.2,573.7z"/>
			<path class="st0" d="M494.7,672.6c-2.6-4.3-5.8-8.4-9.9-12.5L473,648.3l-22.1,22.1l11.8,11.8c3.8,3.8,6.7,8.2,8.4,12.8
				c6,14.5,2.7,31.1-8.5,42.3l-56.4,56.4c-7.4,7.4-17.1,11.4-27.5,11.4c-10.4,0-20.1-4-27.5-11.4c-15.1-15.1-15.1-39.8,0-55
				l27.4-27.4l-0.3-0.8c-3.9-11.1-5.7-23.1-5.1-34.6l0.2-3.6l-44.3,44.3c-13.2,13.2-20.5,30.8-20.5,49.5c0,18.7,7.3,36.3,20.5,49.5
				c13.2,13.2,30.8,20.5,49.6,20.6c0,0,0.1,0,0.1,0c18.7,0,36.3-7.3,49.5-20.4l56.4-56.4c15.8-15.8,23.1-38.6,19.5-60.8
				C503,689.6,499.8,680.9,494.7,672.6z"/>
		</g>
		<path class="st0" d="M777.3,599.1c0,14.5,11.8,26.3,26.3,26.3c14.5,0,26.3-11.8,26.3-26.3s-11.8-26.3-26.3-26.3
			C789.1,572.8,777.3,584.6,777.3,599.1z M803.5,590.3c4.8,0,8.8,3.9,8.8,8.8s-3.9,8.8-8.8,8.8c-4.8,0-8.8-3.9-8.8-8.8
			S798.7,590.3,803.5,590.3z"/>
		<path class="st0" d="M856.1,408.9h-2.6v-37.7c0-17.9-14.6-32.4-32.4-32.4H400.5c-27.6,0-50,22.4-50,50v257.5l29.8-31.4V434.4
			c6.3,2.9,13.1,4.3,20.1,4.3h455.7c1.4,0,2.6,1.2,2.6,2.6v90.2H786c-37.2,0-67.5,30.3-67.5,67.5c0,37.2,30.3,67.5,67.5,67.5h72.7
			v90.2c0,1.4-1.2,2.6-2.6,2.6h-314l-28.8,29.8h342.8c17.9,0,32.4-14.6,32.4-32.4V441.3C888.6,423.4,874,408.9,856.1,408.9z
			 M823.7,408.9H400.5c-11.1,0-20.1-9-20.1-20.1c0-11.1,9-20.1,20.1-20.1h420.6c1.4,0,2.6,1.2,2.6,2.6V408.9z M858.7,636.7H786
			c-20.8,0-37.7-16.9-37.7-37.7c0-20.8,16.9-37.7,37.7-37.7h72.7V636.7z"/>
	</g>
	<path class="st0" d="M931.2,1068.8H283.8c-44.5,0-86.3-17.3-117.7-48.8s-48.8-73.3-48.8-117.7V254.9c0-44.5,17.3-86.3,48.8-117.7
		s73.3-48.8,117.7-48.8h647.4c44.5,0,86.3,17.3,117.7,48.8c31.4,31.4,48.8,73.3,48.8,117.7v647.4c0,44.5-17.3,86.3-48.8,117.7
		C1017.5,1051.5,975.7,1068.8,931.2,1068.8z M283.8,117.9c-75.6,0-137.1,61.5-137.1,137.1v647.4c0,75.6,61.5,137.1,137.1,137.1
		h647.4c75.6,0,137.1-61.5,137.1-137.1V254.9c0-75.6-61.5-137.1-137.1-137.1H283.8z"/>
</g>
</svg>
