<svg width="25" height="19" viewBox="0 0 25 19" fill="none" xmlns="http://www.w3.org/2000/svg">
<path d="M24.6043 12.1741C24.5995 11.9981 24.5947 11.8269 24.5805 11.6509C24.5282 11.1325 24.4663 10.6141 24.376 10.1004C24.2238 9.21581 24.0145 8.34544 23.7386 7.4941C23.3391 6.24325 22.8255 5.04471 22.1977 3.88898C21.8362 3.22788 21.4462 2.58581 21.0277 1.95325C20.9706 1.86288 20.8945 1.80581 20.7994 1.763C20.3047 1.54898 19.8101 1.33971 19.3012 1.15898C18.5355 0.883124 17.7555 0.664343 16.966 0.478855C16.6568 0.407514 16.3429 0.359953 16.0243 0.32666C15.9862 0.32666 15.9434 0.32666 15.9054 0.32666C15.8673 0.350441 15.8197 0.364709 15.796 0.41227C15.7579 0.493124 15.7104 0.564465 15.6675 0.640563C15.5296 0.906904 15.406 1.178 15.2823 1.45385C15.2443 1.53471 15.1919 1.568 15.1016 1.55373C14.7734 1.51093 14.4405 1.47288 14.1075 1.44434C13.6795 1.40154 13.2467 1.38727 12.8186 1.373C12.3193 1.35873 11.8246 1.37776 11.3252 1.41105C11.0969 1.42532 10.8686 1.44434 10.6404 1.46812C10.3835 1.4919 10.1267 1.5252 9.86987 1.55849C9.77474 1.57276 9.72718 1.53471 9.69389 1.4491C9.54645 1.12093 9.3895 0.797514 9.21352 0.483611C9.17547 0.41227 9.13267 0.350441 9.05182 0.331416C9.01377 0.331416 8.97096 0.331416 8.93291 0.331416C8.78072 0.364709 8.61901 0.359952 8.46682 0.388489C7.77718 0.52166 7.10182 0.697635 6.43121 0.906904C5.74157 1.12568 5.06145 1.37776 4.3956 1.66312C4.16255 1.763 3.97706 1.88666 3.82962 2.11495C3.25413 3.02337 2.71669 3.95081 2.26011 4.92105C1.95572 5.57264 1.67511 6.22898 1.44206 6.9091C1.0045 8.15044 0.695354 9.42507 0.509866 10.7282C0.414744 11.3893 0.381451 12.0504 0.371939 12.7163C0.371939 12.7591 0.371939 12.8019 0.371939 12.8495C0.367183 12.897 0.381451 12.9493 0.362427 12.9921C0.362427 13.0112 0.362427 13.0302 0.362427 13.054C0.386207 13.1206 0.367183 13.1871 0.371939 13.2585C0.367183 13.3251 0.386207 13.3917 0.362427 13.4582C0.362427 13.5724 0.362427 13.6865 0.362427 13.8007C0.386207 13.8863 0.367183 13.9767 0.371939 14.0623C0.371939 14.1098 0.371939 14.1574 0.371939 14.205C0.371939 14.2525 0.371939 14.2953 0.371939 14.3429C0.371939 14.3809 0.371939 14.419 0.371939 14.4618C0.376695 14.8232 0.39572 15.1895 0.400476 15.5509C0.400476 15.6793 0.443281 15.7792 0.557427 15.8553C0.766695 15.9932 0.971208 16.1454 1.18048 16.2881C2.04133 16.8636 2.94023 17.382 3.88194 17.8243C4.66194 18.1906 5.45621 18.5045 6.27426 18.7661C6.35987 18.7946 6.45023 18.8041 6.5406 18.8184C6.61194 18.8279 6.66901 18.8041 6.71657 18.7423C7.15413 18.143 7.53462 17.5104 7.87706 16.8541C7.9484 16.7162 7.91986 16.6448 7.77243 16.5878C7.27779 16.3928 6.79743 16.1645 6.32657 15.9171C6.22669 15.8648 6.13157 15.8125 6.03645 15.7554C5.96035 15.7079 5.96035 15.6698 6.02694 15.6128C6.08401 15.5604 6.15535 15.5224 6.20767 15.4701C6.29804 15.3845 6.3884 15.375 6.50255 15.4273C6.69755 15.5271 6.90206 15.6032 7.10657 15.6841C8.12438 16.0789 9.16596 16.3785 10.2456 16.545C10.9543 16.6543 11.6677 16.7209 12.3858 16.7209C12.8282 16.7209 13.2657 16.7162 13.708 16.6734C14.1504 16.6353 14.5927 16.5782 15.0255 16.4974C15.8388 16.35 16.633 16.1312 17.4083 15.8506C17.7745 15.7174 18.136 15.57 18.4927 15.4082C18.5688 15.375 18.6354 15.3797 18.6972 15.432C18.7685 15.4891 18.8399 15.5462 18.9112 15.6032C18.9921 15.6698 18.9873 15.7126 18.8969 15.765C18.5307 15.979 18.1502 16.1645 17.7602 16.3404C17.5652 16.4308 17.3607 16.5069 17.161 16.5878C17.023 16.6448 16.9993 16.7067 17.0611 16.8398C17.0754 16.8684 17.0896 16.9017 17.1039 16.9302C17.3179 17.325 17.5414 17.7102 17.784 18.0859C17.9219 18.3 18.0599 18.5092 18.2073 18.7137C18.2549 18.7803 18.3072 18.8326 18.3975 18.8231C18.5117 18.8089 18.6306 18.7946 18.7447 18.7518C18.9207 18.69 19.0967 18.6329 19.2679 18.5711C19.9813 18.319 20.6805 18.0241 21.3606 17.6912C21.9884 17.3868 22.5924 17.0443 23.1869 16.6734C23.6197 16.4023 24.0383 16.1169 24.4473 15.8173C24.4949 15.784 24.5377 15.7412 24.5424 15.6793C24.5472 15.6032 24.5614 15.5319 24.5662 15.4606C24.5947 15.0135 24.5995 14.5617 24.609 14.1098C24.6375 13.463 24.6233 12.8209 24.6043 12.1741ZM10.0363 12.1931C9.17547 13.1871 7.75816 13.1824 6.90206 12.1836C6.06499 11.2086 6.08877 9.67715 6.95913 8.73068C7.90084 7.70337 9.47511 7.86032 10.2456 9.0541C10.5119 9.46788 10.6546 9.953 10.6546 10.5665C10.6451 11.1135 10.4644 11.6985 10.0363 12.1931ZM18.0408 12.255C17.2133 13.1539 15.8816 13.1586 15.0397 12.2692C14.1361 11.3132 14.1171 9.73898 14.9874 8.75447C15.8958 7.7319 17.4273 7.82703 18.2311 8.95422C18.545 9.39178 18.7067 9.9102 18.7019 10.5095C18.7019 11.1468 18.5022 11.7556 18.0408 12.255Z" fill="#14C918"/>
</svg>
