<svg width="17" height="19" viewBox="0 0 17 19" fill="none" xmlns="http://www.w3.org/2000/svg">
<path d="M16.0101 1.42001C15.9001 1.39001 15.7601 1.36001 15.7301 1.25001C15.6901 1.12001 15.8301 1.07001 15.9101 1.01001C15.9401 0.990015 15.9701 0.960015 15.9801 0.940015C16.0001 0.850015 16.1701 0.770015 16.0401 0.660015C15.7401 0.410015 15.4101 0.220015 14.9901 0.230015C14.7601 0.240015 14.5201 0.310015 14.3101 0.150015C14.2801 0.120015 14.2001 0.130015 14.1601 0.140015C14.0901 0.170015 14.0101 0.170015 13.9401 0.160015C13.5501 0.120015 13.1601 0.0900147 12.7701 0.0500146C12.3001 -0.00998535 11.8301 1.46481e-05 11.3601 1.46481e-05C10.8401 1.46481e-05 10.3101 0.0300146 9.79006 0.0700146C9.02006 0.130015 8.26006 0.210015 7.49006 0.270015C6.97006 0.320015 6.45006 0.270015 5.94006 0.340015C5.57006 0.390015 5.21006 0.410015 4.84006 0.370015C4.69006 0.350015 4.65006 0.390015 4.66006 0.540015C4.66006 0.890015 4.46006 1.11001 4.12006 1.18001C3.93006 1.21001 3.90006 1.26001 3.96006 1.44001C4.02006 1.63001 4.08006 1.82001 4.15006 2.01001C4.26006 2.30001 4.37006 2.58001 4.45006 2.87001C4.47006 2.96001 4.49006 3.02001 4.35006 3.04001C4.22006 3.06001 4.09006 3.13001 3.96006 3.18001C3.92006 3.19001 3.90006 3.21001 3.92006 3.26001C4.00006 3.50001 4.07006 3.74001 4.29006 3.89001C4.36006 3.94001 4.40006 4.03001 4.44006 4.12001C4.60006 4.50001 4.76006 4.88001 4.93006 5.26002C4.95006 5.32001 4.97006 5.37001 4.99006 5.43001C5.03006 5.55001 5.49006 6.87001 5.67006 7.42001C5.68006 7.47002 5.70006 7.52001 5.71006 7.58001C5.71006 7.67001 5.75006 7.75001 5.72006 7.84001L5.58006 7.92001L4.85006 8.42001C4.74006 8.50001 4.63006 8.58001 4.52006 8.65001C4.40006 8.73001 4.27006 8.81001 4.15006 8.89001C4.14006 8.90001 4.12006 8.91001 4.10006 8.92001C4.00006 8.97001 3.90006 9.02001 3.82006 9.10001C3.66006 9.20002 3.50006 9.29001 3.35006 9.39001C3.24006 9.46001 3.14006 9.53001 3.03006 9.61001C2.79006 9.78001 2.55006 9.94001 2.31006 10.11C2.27006 10.12 2.23006 10.14 2.21006 10.18C1.94006 10.35 1.67006 10.52 1.41006 10.7C1.38006 10.72 1.34006 10.75 1.31006 10.77C1.26006 10.8 1.22006 10.83 1.17006 10.86C1.11006 10.9 0.530058 11.3 0.300058 11.46C0.240058 11.49 0.180058 11.52 0.130058 11.58C-0.0399422 11.72 -0.0399422 11.77 0.100058 11.91L0.120058 11.94L0.160058 12.01C0.160058 12.01 0.640058 12.75 0.740058 12.91C0.740058 12.9 0.740058 12.9 0.750058 12.89C0.750058 12.9 0.750058 12.9 0.740058 12.91C0.770058 12.95 0.790058 12.99 0.820058 13.03C0.850058 13.08 0.880058 13.14 0.920058 13.19L1.04006 13.4C1.15006 13.6 1.24006 13.62 1.45006 13.51L1.68006 13.38C1.73006 13.36 1.77006 13.33 1.82006 13.3L2.17006 13.1L2.81006 12.69C2.81006 12.69 2.82006 12.69 2.82006 12.68C2.84006 12.67 2.89006 12.63 2.96006 12.59L3.71006 12.11C3.72006 12.11 3.72006 12.1 3.72006 12.1L4.00006 11.91C4.08006 11.9 4.16006 11.89 4.23006 11.88L4.70006 11.84C4.79006 11.84 4.87006 11.83 4.87006 11.71C4.86006 11.46 4.98006 11.32 5.18006 11.22C5.24006 11.19 5.28006 11.15 5.33006 11.11C5.42006 11.05 5.51006 11 5.60006 10.94C5.69006 10.88 5.78006 10.82 5.88006 10.76C5.99006 10.71 6.09006 10.64 6.19006 10.56C6.25006 10.54 6.30006 10.51 6.34006 10.46C6.58006 10.31 6.58006 10.31 6.67006 10.49C6.70006 10.6 6.73006 10.7 6.76006 10.81L7.12006 12.2L7.13006 12.18C7.17006 12.33 7.20006 12.48 7.25006 12.62C7.27006 12.76 7.31006 12.9 7.36006 13.03C7.39006 13.14 7.42006 13.24 7.45006 13.35C7.53006 13.72 7.63006 14.08 7.76006 14.44C7.82006 14.72 7.96006 14.98 8.06006 15.25C8.08006 15.37 8.10006 15.48 8.16006 15.59C8.34006 16.32 8.55006 17.03 8.82006 17.73C8.95006 18.08 9.05006 18.46 9.31006 18.75C9.40006 18.85 9.49006 18.98 9.60006 18.77C9.61006 18.75 9.64006 18.74 9.67006 18.73C9.86006 18.63 10.0201 18.5 10.1401 18.31C10.2201 18.18 10.3801 18.21 10.5001 18.19C10.6001 18.17 10.5801 18.28 10.6101 18.33C10.6901 18.45 10.7901 18.55 10.9101 18.58C11.0201 18.61 11.0501 18.45 11.1301 18.39C11.1701 18.36 11.2501 18.32 11.2101 18.26C11.1201 18.1 11.2201 18.12 11.3201 18.12C11.5601 18.11 11.5601 18.11 11.5501 17.87C11.5501 17.82 11.5401 17.78 11.5401 17.73C11.5201 17.45 11.3401 17.22 11.2401 16.96C11.0901 16.58 10.9501 16.18 10.8301 15.79C10.5801 14.93 10.3501 14.06 10.1101 13.2C10.1001 13.16 10.0901 13.13 10.0701 13.09L10.0801 13.1L9.94006 12.61C9.78006 12.11 9.62006 11.6 9.47006 11.1C9.44006 10.92 9.29006 10.56 9.28006 10.54C9.28006 10.5 9.27006 10.46 9.25006 10.44C9.24006 10.42 9.24006 10.4 9.23006 10.38L8.72006 8.96001C8.72006 8.96001 8.70006 8.77001 8.84006 8.67001C8.88006 8.63001 8.93006 8.60001 8.98006 8.56001C9.01006 8.54001 9.04006 8.51001 9.08006 8.48001L9.79006 7.94001L9.82006 7.92001C9.86006 7.89001 9.90006 7.86001 9.93006 7.83001L10.1601 7.65001C10.2101 7.62001 10.2601 7.58001 10.3001 7.54001C10.5801 7.33001 10.8601 7.11001 11.1201 6.87001L12.1501 6.03001L12.9301 5.35001L13.2901 5.08001L13.4601 4.90001C13.9401 4.48001 14.3801 4.02001 14.7801 3.52001L14.7901 3.51001L14.8401 3.44001C15.3301 2.81001 15.7701 2.14001 16.2201 1.47001C16.1301 1.44001 16.0701 1.43001 16.0101 1.42001ZM12.6601 4.77001C12.6201 4.89001 12.5201 4.90001 12.4101 4.89001C12.3101 4.88001 12.2601 4.91001 12.2801 5.02001C12.3201 5.19001 12.2201 5.24001 12.0801 5.27001C11.8401 5.31001 11.6101 5.24002 11.3801 5.17001C11.3301 5.14001 11.2701 5.11001 11.2201 5.09001L11.2001 5.08001C11.1801 5.07001 11.1501 5.06002 11.1301 5.05001L10.7901 4.93001C10.7701 4.92001 10.7501 4.92001 10.7401 4.91001L10.4001 4.78001C10.3601 4.77001 10.3201 4.75001 10.2801 4.74001C10.2601 4.73001 10.2401 4.73001 10.2201 4.72001L10.1201 4.68001C9.93006 4.62001 9.86006 4.64002 9.76006 4.80001V4.79001C9.76006 4.79001 9.00006 5.90001 8.66006 6.26002L8.36006 6.61001C8.31006 6.67001 8.25006 6.72001 8.19006 6.77001C8.07006 6.84001 7.92006 6.81002 7.89006 6.80001C7.87006 6.79001 7.85006 6.78001 7.83006 6.77001L7.74006 6.70001L7.13006 6.13001C7.02006 6.01002 7.07006 5.85002 7.09006 5.80001C7.46006 5.24002 7.92006 4.75001 8.27006 4.18001C8.35006 4.05001 8.34006 4.00001 8.20006 3.95001C7.48006 3.68001 6.76006 3.39001 6.05006 3.07001C5.68006 2.90001 5.62006 2.76001 5.74006 2.37001C5.81006 2.16001 5.96006 2.00001 6.02006 1.78001C6.05006 1.67001 6.19006 1.66001 6.30006 1.66001C6.41006 1.67001 6.53006 1.69001 6.64006 1.73001C7.46006 2.04001 8.28006 2.34001 9.10006 2.65001C9.21006 2.70001 9.28006 2.68001 9.34006 2.57001C9.41006 2.45001 9.49006 2.33001 9.57006 2.21001C9.90006 1.74001 10.2301 1.27001 10.5601 0.800015C10.7201 0.580015 10.7801 0.570015 11.0101 0.710015C11.0201 0.720015 11.0301 0.720015 11.0401 0.730015C11.2501 0.910015 11.5001 1.01001 11.7801 1.02001C11.8501 1.02001 11.9201 1.04001 11.9301 1.13001C11.9501 1.33001 11.9501 1.53001 11.8301 1.70001C11.7101 1.86001 11.2701 2.61001 11.1401 2.81001C11.0701 2.93001 11.0001 3.05001 10.9201 3.17001C10.8401 3.28001 10.9001 3.30001 10.9901 3.33001C11.3901 3.46001 11.7801 3.60001 12.1601 3.77001C12.2401 3.81001 12.3301 3.84001 12.3601 3.94001C12.3601 3.99001 12.4001 4.01002 12.4401 4.00001C12.6001 3.97001 12.6401 4.08001 12.6701 4.19001C12.7401 4.38001 12.7101 4.58001 12.6601 4.77001Z" fill="white"/>
</svg>
