<svg width="19" height="15" viewBox="0 0 19 15" fill="none" xmlns="http://www.w3.org/2000/svg">
<path d="M18.061 2.11485C17.4285 2.39546 16.7531 2.58094 16.0444 2.66655C16.7721 2.23375 17.3286 1.54412 17.5902 0.726068C16.9101 1.13034 16.1586 1.42046 15.3596 1.57741C14.7222 0.892531 13.8091 0.469238 12.796 0.469238C10.8555 0.469238 9.28598 2.04351 9.28598 3.98399C9.28598 4.25985 9.31451 4.52619 9.37634 4.78302C6.45608 4.63558 3.86875 3.23729 2.13751 1.11131C1.83312 1.62973 1.6619 2.23375 1.6619 2.88058C1.6619 4.09814 2.2802 5.17302 3.22191 5.80558C2.64642 5.78655 2.10422 5.6296 1.62861 5.36802V5.41082C1.62861 7.1135 2.84142 8.53558 4.44899 8.85423C4.15411 8.93509 3.84496 8.97789 3.52155 8.97789C3.29325 8.97789 3.07447 8.95887 2.86045 8.91607C3.30752 10.3096 4.60119 11.3274 6.14217 11.3559C4.93887 12.2976 3.42643 12.8589 1.7808 12.8589C1.49544 12.8589 1.21958 12.8446 0.943726 12.8113C2.49898 13.8053 4.34436 14.3903 6.32767 14.3903C12.7912 14.3903 16.3203 9.03972 16.3203 4.39777C16.3203 4.24558 16.3155 4.09338 16.3108 3.94119C16.9957 3.43704 17.5902 2.81875 18.061 2.11485Z" fill="#14C918"/>
</svg>
